{
	"asset":{
		"generator":"Khronos glTF Blender I/O v4.1.63",
		"version":"2.0"
	},
	"scene":0,
	"scenes":[
		{
			"name":"Scene",
			"nodes":[
				0
			]
		}
	],
	"nodes":[
		{
			"mesh":0,
			"name":"gm_flatgrass",
			"rotation":[
				0.70710688829422,
				0,
				0,
				0.7071066498756409
			],
			"translation":[
				-0.6516585350036621,
				1.9514541625976562,
				-0.033109843730926514
			]
		}
	],
	"materials":[
		{
			"doubleSided":true,
			"name":"materials/concrete/concretefloor028c",
			"pbrMetallicRoughness":{
				"baseColorTexture":{
					"index":0
				},
				"metallicFactor":0,
				"roughnessFactor":0.4000000059604645
			}
		},
		{
			"doubleSided":true,
			"name":"materials/concrete/concretefloor028a.001",
			"pbrMetallicRoughness":{
				"baseColorTexture":{
					"index":1
				},
				"metallicFactor":0,
				"roughnessFactor":0.4000000059604645
			}
		},
		{
			"doubleSided":true,
			"name":"materials/brick/brickwall003a_construct.001",
			"pbrMetallicRoughness":{
				"baseColorTexture":{
					"index":2
				},
				"metallicFactor":0,
				"roughnessFactor":0.4000000059604645
			}
		},
		{
			"doubleSided":true,
			"name":"materials/brick/brickwall053d",
			"pbrMetallicRoughness":{
				"baseColorTexture":{
					"index":3
				},
				"metallicFactor":0,
				"roughnessFactor":0.4000000059604645
			}
		},
		{
			"doubleSided":true,
			"name":"materials/concrete/concreteceiling003a",
			"pbrMetallicRoughness":{
				"baseColorTexture":{
					"index":4
				},
				"metallicFactor":0,
				"roughnessFactor":0.4000000059604645
			}
		},
		{
			"doubleSided":true,
			"name":"materials/gm_construct/flatgrass",
			"pbrMetallicRoughness":{
				"baseColorTexture":{
					"index":5
				},
				"metallicFactor":0,
				"roughnessFactor":0.4000000059604645
			}
		}
	],
	"meshes":[
		{
			"name":"gm_flatgrass",
			"primitives":[
				{
					"attributes":{
						"POSITION":0,
						"NORMAL":1,
						"TEXCOORD_0":2
					},
					"indices":3,
					"material":0
				},
				{
					"attributes":{
						"POSITION":4,
						"NORMAL":5,
						"TEXCOORD_0":6
					},
					"indices":7,
					"material":1
				},
				{
					"attributes":{
						"POSITION":8,
						"NORMAL":9,
						"TEXCOORD_0":10
					},
					"indices":11,
					"material":2
				},
				{
					"attributes":{
						"POSITION":12,
						"NORMAL":13,
						"TEXCOORD_0":14
					},
					"indices":15,
					"material":3
				},
				{
					"attributes":{
						"POSITION":16,
						"NORMAL":17,
						"TEXCOORD_0":18
					},
					"indices":19,
					"material":4
				},
				{
					"attributes":{
						"POSITION":20,
						"NORMAL":21,
						"TEXCOORD_0":22
					},
					"indices":23,
					"material":5
				}
			]
		}
	],
	"textures":[
		{
			"sampler":0,
			"source":0
		},
		{
			"sampler":0,
			"source":1
		},
		{
			"sampler":0,
			"source":2
		},
		{
			"sampler":0,
			"source":3
		},
		{
			"sampler":0,
			"source":4
		},
		{
			"sampler":0,
			"source":5
		}
	],
	"images":[
		{
			"mimeType":"image/png",
			"name":"materials_concrete_concretefloor028c",
			"uri":"materials_concrete_concretefloor028c.png"
		},
		{
			"mimeType":"image/png",
			"name":"materials_concrete_concretefloor028a",
			"uri":"materials_concrete_concretefloor028a.png"
		},
		{
			"mimeType":"image/png",
			"name":"materials_brick_brickwall003a",
			"uri":"materials_brick_brickwall003a.png"
		},
		{
			"mimeType":"image/png",
			"name":"materials_brick_brickwall053d",
			"uri":"materials_brick_brickwall053d.png"
		},
		{
			"mimeType":"image/png",
			"name":"materials_concrete_concreteceiling003a",
			"uri":"materials_concrete_concreteceiling003a.png"
		},
		{
			"mimeType":"image/png",
			"name":"materials_gm_construct_grass2",
			"uri":"materials_gm_construct_grass2.png"
		}
	],
	"accessors":[
		{
			"bufferView":0,
			"componentType":5126,
			"count":162,
			"max":[
				10.891658782958984,
				10.273070335388184,
				-2.1489486694335938
			],
			"min":[
				-9.588340759277344,
				-10.206928253173828,
				-2.3089523315429688
			],
			"type":"VEC3"
		},
		{
			"bufferView":1,
			"componentType":5126,
			"count":162,
			"type":"VEC3"
		},
		{
			"bufferView":2,
			"componentType":5126,
			"count":162,
			"type":"VEC2"
		},
		{
			"bufferView":3,
			"componentType":5123,
			"count":216,
			"type":"SCALAR"
		},
		{
			"bufferView":4,
			"componentType":5126,
			"count":161,
			"max":[
				10.891658782958984,
				10.273072242736816,
				2.4910430908203125
			],
			"min":[
				-9.588340759277344,
				-10.206928253173828,
				-2.3089523315429688
			],
			"type":"VEC3"
		},
		{
			"bufferView":5,
			"componentType":5126,
			"count":161,
			"type":"VEC3"
		},
		{
			"bufferView":6,
			"componentType":5126,
			"count":161,
			"type":"VEC2"
		},
		{
			"bufferView":7,
			"componentType":5123,
			"count":366,
			"type":"SCALAR"
		},
		{
			"bufferView":8,
			"componentType":5126,
			"count":2041,
			"max":[
				10.891658782958984,
				10.2730712890625,
				2.4910507202148438
			],
			"min":[
				-9.588340759277344,
				-10.206929206848145,
				-2.1489486694335938
			],
			"type":"VEC3"
		},
		{
			"bufferView":9,
			"componentType":5126,
			"count":2041,
			"type":"VEC3"
		},
		{
			"bufferView":10,
			"componentType":5126,
			"count":2041,
			"type":"VEC2"
		},
		{
			"bufferView":11,
			"componentType":5123,
			"count":3084,
			"type":"SCALAR"
		},
		{
			"bufferView":12,
			"componentType":5126,
			"count":404,
			"max":[
				10.891658782958984,
				10.273072242736816,
				2.8110504150390625
			],
			"min":[
				-9.588340759277344,
				-10.206928253173828,
				0.25104522705078125
			],
			"type":"VEC3"
		},
		{
			"bufferView":13,
			"componentType":5126,
			"count":404,
			"type":"VEC3"
		},
		{
			"bufferView":14,
			"componentType":5126,
			"count":404,
			"type":"VEC2"
		},
		{
			"bufferView":15,
			"componentType":5123,
			"count":606,
			"type":"SCALAR"
		},
		{
			"bufferView":16,
			"componentType":5126,
			"count":96,
			"max":[
				4.8116583824157715,
				10.2730712890625,
				0.41104888916015625
			],
			"min":[
				-9.588340759277344,
				-10.206928253173828,
				-2.1489486694335938
			],
			"type":"VEC3"
		},
		{
			"bufferView":17,
			"componentType":5126,
			"count":96,
			"type":"VEC3"
		},
		{
			"bufferView":18,
			"componentType":5126,
			"count":96,
			"type":"VEC2"
		},
		{
			"bufferView":19,
			"componentType":5123,
			"count":156,
			"type":"SCALAR"
		},
		{
			"bufferView":20,
			"componentType":5126,
			"count":100,
			"max":[
				159.3716583251953,
				158.75306701660156,
				2.8110504150390625
			],
			"min":[
				-158.06834411621094,
				-158.6869354248047,
				2.8110504150390625
			],
			"type":"VEC3"
		},
		{
			"bufferView":21,
			"componentType":5126,
			"count":100,
			"type":"VEC3"
		},
		{
			"bufferView":22,
			"componentType":5126,
			"count":100,
			"type":"VEC2"
		},
		{
			"bufferView":23,
			"componentType":5123,
			"count":150,
			"type":"SCALAR"
		}
	],
	"bufferViews":[
		{
			"buffer":0,
			"byteLength":1944,
			"byteOffset":0,
			"target":34962
		},
		{
			"buffer":0,
			"byteLength":1944,
			"byteOffset":1944,
			"target":34962
		},
		{
			"buffer":0,
			"byteLength":1296,
			"byteOffset":3888,
			"target":34962
		},
		{
			"buffer":0,
			"byteLength":432,
			"byteOffset":5184,
			"target":34963
		},
		{
			"buffer":0,
			"byteLength":1932,
			"byteOffset":5616,
			"target":34962
		},
		{
			"buffer":0,
			"byteLength":1932,
			"byteOffset":7548,
			"target":34962
		},
		{
			"buffer":0,
			"byteLength":1288,
			"byteOffset":9480,
			"target":34962
		},
		{
			"buffer":0,
			"byteLength":732,
			"byteOffset":10768,
			"target":34963
		},
		{
			"buffer":0,
			"byteLength":24492,
			"byteOffset":11500,
			"target":34962
		},
		{
			"buffer":0,
			"byteLength":24492,
			"byteOffset":35992,
			"target":34962
		},
		{
			"buffer":0,
			"byteLength":16328,
			"byteOffset":60484,
			"target":34962
		},
		{
			"buffer":0,
			"byteLength":6168,
			"byteOffset":76812,
			"target":34963
		},
		{
			"buffer":0,
			"byteLength":4848,
			"byteOffset":82980,
			"target":34962
		},
		{
			"buffer":0,
			"byteLength":4848,
			"byteOffset":87828,
			"target":34962
		},
		{
			"buffer":0,
			"byteLength":3232,
			"byteOffset":92676,
			"target":34962
		},
		{
			"buffer":0,
			"byteLength":1212,
			"byteOffset":95908,
			"target":34963
		},
		{
			"buffer":0,
			"byteLength":1152,
			"byteOffset":97120,
			"target":34962
		},
		{
			"buffer":0,
			"byteLength":1152,
			"byteOffset":98272,
			"target":34962
		},
		{
			"buffer":0,
			"byteLength":768,
			"byteOffset":99424,
			"target":34962
		},
		{
			"buffer":0,
			"byteLength":312,
			"byteOffset":100192,
			"target":34963
		},
		{
			"buffer":0,
			"byteLength":1200,
			"byteOffset":100504,
			"target":34962
		},
		{
			"buffer":0,
			"byteLength":1200,
			"byteOffset":101704,
			"target":34962
		},
		{
			"buffer":0,
			"byteLength":800,
			"byteOffset":102904,
			"target":34962
		},
		{
			"buffer":0,
			"byteLength":300,
			"byteOffset":103704,
			"target":34963
		}
	],
	"samplers":[
		{
			"magFilter":9729,
			"minFilter":9987
		}
	],
	"buffers":[
		{
			"byteLength":104004,
			"uri":"flatgrass.bin"
		}
	]
}
